<?xml version="1.0" encoding="utf-8"?>
<!-- Generator: Adobe Illustrator 23.0.6, SVG Export Plug-In . SVG Version: 6.00 Build 0)  -->
<svg version="1.1" id="Layer_1" xmlns="http://www.w3.org/2000/svg" xmlns:xlink="http://www.w3.org/1999/xlink" x="0px" y="0px"
	 viewBox="0 0 72 72" style="enable-background:new 0 0 72 72;" xml:space="preserve">
<style type="text/css">
	.st0{fill:none;stroke:#FFFFFF;stroke-width:3;stroke-miterlimit:10;}
	.st1{fill:none;stroke:#FFFFFF;stroke-width:3;stroke-linecap:round;stroke-linejoin:round;}
</style>
<title>Artboard 140 copy 68</title>
<g id="Ebene_2">
	<path class="st0" d="M36,52.9c-12.7,0-23.6-12.5-23.6-15.4S23.3,22.1,36,22.1s23.6,11.6,23.6,15.4S49,52.9,36,52.9z"/>
	<circle class="st0" cx="36.6" cy="37.8" r="15.1"/>
	<path class="st0" d="M29.8,35.9h7.6c0.6,0,1,0.4,1,1v5.3c0,0.6-0.4,1-1,1h-7.6c-0.6,0-1-0.4-1-1v-5.3
		C28.8,36.3,29.2,35.9,29.8,35.9z"/>
	<polyline class="st1" points="36.7,32 44.2,32 44.2,37.5 	"/>
</g>
</svg>
