<svg role="img" aria-description="Release Notes SVG" xmlns="http://www.w3.org/2000/svg"
     width="100%" height="100%" viewBox="-5 -5 970 690" preserveAspectRatio="xMidYMid meet">
    <style>
        rect.scaledRect {
        color: #0c66e4;
        }
    </style>
    <defs>
        <clipPath id="itextClip">
            <text x="480" y="380" font-size="10em" text-anchor="middle">
                text
                <tspan dx="-325">i</tspan>
            </text>
        </clipPath>
        <linearGradient id="template">
            <stop offset="0" stop-color="rgb(64, 61, 26)" stop-opacity="1"/>
            <stop offset="0.3" stop-color="rgb(150, 192, 134)" stop-opacity="0.5"/>
            <stop offset="1" stop-color="rgb(239, 0, 0)" stop-opacity="1"/>
        </linearGradient>
        <linearGradient id="gradient" href="#template"/>
    </defs>
    <rect class="scaledRect" x="0" y="0" rx="200" ry="2" width="9600" height="68" transform="scale(0.1, 10)"
          fill="#758692" fill-opacity="0.1"
          stroke="currentColor" stroke-width="5pt" vector-effect="non-scaling-stroke"/>
    <g clip-path="url(#itextClip)">
        <rect x="290" y="260" width="380" height="160" fill="#004068"/>
        <rect x="290" y="260" width="65" height="160" fill="#fc9336"/>
    </g>
    <g id="wordcloud" font-size="120px" transform="translate(480, 300) scale(0.27, 0.27)"
       stroke-width="0.5px" stroke="currentColor">
        <text x="-150" y="-210" fill="url(#gradient)" stroke="rgb(64, 61, 26)" stroke-opacity="0.2" stroke-width="10"
              font-size="175" text-decoration="underline" text-anchor="middle">
            Release Notes
        </text>
        <text x="-520" y="-900" text-anchor="end" style="fill: rgb(244, 159, 99)">
            Kiadási megjegyzések
            <tspan dx="-955" dy="170" fill="rgb(50, 65, 21)">
                ਿਰਲੀਜ਼ ਨੋਟਸ
                <tspan dx="-850" dy="130" style="fill: rgb(150, 192, 134)">
                    Versionshinweise
                </tspan>
            </tspan>
            <tspan dx="-900" dy="130" fill="rgb(0, 69, 62)" font-size="5rem">
                Шығарылым жазбалары
            </tspan>
        </text>

        <text text-anchor="middle" fill="rgb(255, 233, 240)" transform="translate(-100, 1300)" font-size="140"
              text-decoration="underline">
            Sürüm Notları
        </text>
        <text text-anchor="middle" style="fill: rgb(250, 246, 255); font-size: 160px;" transform="translate(-1200, -70)">
            릴리스 노트
        </text>
        <text x="1000" y="20" text-anchor="middle" fill="rgb(225, 255, 246)" font-size="1.4em">
            发布说明
        </text>
        <text text-anchor="middle" font-size="100" style="fill: rgb(162, 185, 198)" transform="translate(-50, 790)">
            ெவளியீட்டு குறிப்புகள்
        </text>
        <text x="-780" y="446" text-anchor="middle" font-size="100" style="fill: rgb(0, 66, 90)">
            Poznámky k vydání
        </text>
        <text text-anchor="middle" style="fill: rgb(239, 0, 17)" transform="translate(-1000, 685)">
            िरलीज नोट्स
        </text>
        <text text-anchor="middle" style="stroke: url(#gradient); stroke-width: 2px"
              transform="translate(1100, 1350)" fill="none">
            Release-opmerkingen
        </text>
        <text text-anchor="middle" fill="rgb(255, 241, 217)" font-size="125" transform="translate(-1200, 280)">
            విడుదల గమనికలు
        </text>
        <text text-anchor="middle" style="fill: rgb(150, 191, 162)" transform="translate(330, -557)">
            িরিলজ েনাটস
        </text>
        <text x="1600" y="-750" text-anchor="end" fill="rgb(239, 0, 0)">
            િરલીઝ નોંધો
        </text>
        <text x="-28" y="-950" text-anchor="middle" style="fill: rgb(255, 125, 104)">
            ملاحظات الإصدار
        </text>
        <text text-anchor="middle" style="fill: rgb(255, 239, 233)" transform="translate(1250, -580)"
              text-decoration="underline">
            Notatki o wersji
        </text>
        <text text-anchor="middle" fill="rgb(141, 188, 216)" font-size="100"
              transform="translate(1200, -950)">
            Примечания к релизу
        </text>
        <text x="-730" y="-600" text-anchor="end" direction="rtl" font-size="130" style="fill: rgb(250, 0, 0)">
            ریلیز نوٹس
        </text>
        <text x="1200" y="680" text-anchor="middle" fill="rgb(242, 161, 50)" font-size="110">
            Notas de versão
        </text>
        <text text-anchor="middle" style="fill: rgb(207, 255, 223)" transform="translate(185, 963)">
            Notes de version
        </text>
        <text text-anchor="middle" font-size="130" style="fill: rgb(71, 56, 62)" transform="translate(0, 600)">
            Buraxılış qeydləri
        </text>
        <text x="200" y="-850" text-anchor="start" fill="rgb(227, 253, 255)" font-size="90">
            Note di rilascio
        </text>
        <text style="fill: rgb(250, 246, 255)" transform="translate(700, 1000)">
            リリースノート
        </text>
        <text text-anchor="middle" font-size="100" style="fill: rgb(137, 192, 182)" transform="translate(-1230, 540)">
            Примітки до релізу
        </text>
        <text text-anchor="middle" font-size="110" style="fill: rgb(59, 60, 66)" transform="translate(115, -740)">
            Нататкі да рэлізу
        </text>
        <text x="1230" y="-160" text-anchor="middle" fill="rgb(247, 0, 31)" font-size="95">
            Leidimo pastabos
        </text>
        <text text-anchor="middle"
              style="fill: rgb(255, 141, 95); "
              transform="translate(-1200, 830)">Izlaides piezīmes
        </text>
        <text x="550" y="170" fill="rgb(179, 181, 192)" font-size="100">
            නිකුත් කිරීමේ සටහන්
        </text>
        <text text-anchor="middle" font-size="140" fill="rgb(62, 61, 22)" transform="translate(-1300, -300)">
            הודעות שחרור
        </text>
        <text x="1170" y="330" text-anchor="middle" fill="rgb(255, 233, 240)">
            Cathetan Rilis
        </text>
        <text text-anchor="middle" font-size="110" style="fill: rgb(249, 154, 127)" transform="translate(1100, 830)">
            Chiqarish eslatmalari
        </text>
        <text x="-1050" y="100" text-anchor="middle" stroke-width="4" stroke="rgb(239, 0, 0)" fill="none"
              text-decoration="underline">
            Искәрмәләр
        </text>
        <text text-anchor="middle" font-size="75" style="fill: rgb(144, 188, 212)" transform="translate(-600, -760)">
            Catatan Rilis
        </text>
        <text text-anchor="middle" style="fill: rgb(225, 0, 2)" transform="translate(700, 1150)">
            កំណត់ចំណាំៃនការេចញផ្សាយ
        </text>
        <text x="1250" y="-310" text-anchor="middle" stroke="rgb(255, 129, 59)" stroke-width="5"
              fill="none" font-size="130">
            บันทึกประจำรุ่น
        </text>
        <text text-anchor="middle" font-size="130" style="fill: rgb(206, 255, 253)" transform="translate(-800, 1000)">
            ಬಿಡುಗಡೆ ಟಿಪಪ್ಣಿಗಳು
        </text>
        <text text-anchor="middle" style="fill: rgb(206, 175, 147)" transform="translate(290, -428)">
            റിലീസ് കുറിപ്പുകൾ
        </text>
        <text text-anchor="middle" font-size="140" style="fill: rgb(64, 58, 65)" transform="translate(-1100, 1200)">
            ြဖန့်ချိေရးမှတ်စုများ
        </text>
        <text x="800" y="200" text-anchor="end" style="fill: rgb(150, 192, 134)" font-size="160"
              transform="translate(760, 320)">
            ପ୍ରକାଶନ ଟିପ୍ପଣୀ
        </text>
    </g>
    <g id="rocket" transform="translate(600, 200), scale(0.5, 0.5)">
        <path fill="#ca2c31" d="M3.77 71.73l16.34-16.1l27.82-4.93l-2.75 14.56L7.57 76.82l-2.43-1.05z"/>
        <path fill="#a02422" d="M22.94 59.76L5.2 75.88l13.05 6.36l19.81-10.11v-4.77l4.05-10.92z"/>
        <path d="M64.92 88.15l-8.57 3.72l-8.09 17.15s7.12 15.77 7.44 15.77c.32 0 4.37.32 4.37.32l14.4-16.1l3.64-27.5l-13.19 6.64z"
              fill="#a02422"/>
        <path d="M56.5 100.84s4.77-.97 8.17-2.59c3.4-1.62 7.6-4.04 7.6-4.04l-1.54 13.43l-15.05 17.13s-.59-.73-3.09-6.17c-1.99-4.34-2.68-5.89-2.68-5.89l6.59-11.87z"
              fill="#ca2c31"/>
        <path d="M31.58 80.66s-5.74-.48-12.03 7.47c-5.74 7.26-8.43 19.08-9.47 22.12s-3.53 3.66-2.7 5.05s4.42 1.31 8.85.76s8.23-1.94 8.23-1.94s-.19.48-.83 1.52c-.23.37-1.03.9-.97 1.45c.14 1.31 11.36 1.34 20.32-7.88c9.68-9.95 4.98-18.11 4.98-18.11L31.58 80.66z"
              fill="#f7d74d"/>
        <path d="M33.31 85.29s-6.19.33-11.31 8.28s-7.5 17.16-7.01 17.78c.48.62 10.02-2.83 12.31-2.14c1.57.48.76 2.07 1.18 2.49c.35.35 4.49.94 11.19-6.32c6.71-7.26 5.12-17.46 5.12-17.46l-11.48-2.63z"
              fill="#fbf0b4"/>
        <path d="M36.35 74.44s-3.11 2.77-4.22 4.36c-1.11 1.59-1.11 1.73-1.04 2.21c.07.48 1.22 5.75 6.01 10.37c5.88 5.67 11.13 6.43 11.89 6.43c.76 0 5.81-5.67 5.81-5.67l-18.45-17.7z"
              fill="#858585"/>
        <path d="M50.1 91.24s5.04 3.31 13.49.47c11.55-3.88 20.02-12.56 30.51-23.52c10.12-10.58 18.61-23.71 18.61-23.71l-5.95-19.93L50.1 91.24z"
              fill="#437687"/>
        <path d="M67.99 80.33l1.39-4.32l3.48.49s2.65 1.25 4.6 2.16c1.95.91 4.46 1.6 4.46 1.6l-4.95 4.18s-2.7-1.02-4.67-1.88c-2.22-.97-4.31-2.23-4.31-2.23z"
              fill="#3f545f"/>
        <path d="M84.32 16.14s-9.62 5.58-23.41 18.63c-12.43 11.76-21.64 22.4-23.87 31.45c-1.86 7.58-.87 12.18 3.36 17.15c4.47 5.26 9.71 7.87 9.71 7.87s3.94.06 20.38-12.59C91 62.86 107.43 36.42 107.43 36.42L84.32 16.14z"
              fill="#8dafbf"/>
        <path d="M104.18 41.84s-8.37-3.57-14.34-11.9c-5.93-8.27-5.46-13.86-5.46-13.86s4.96-3.89 16.11-8.34c7.5-2.99 17.71-4.52 21.07-2.03s-2.3 14.98-2.3 14.98l-10.31 19.96l-4.77 1.19z"
              fill="#d83f22"/>
        <path d="M68.17 80.4s-7.23-3.69-11.83-8.94c-8.7-9.91-10.5-20.79-10.5-20.79l4.37-5.13S51.3 57.1 60.63 67.09c6.08 6.51 12.43 9.49 12.43 9.49s-1.27 1.07-2.63 2.11c-.87.67-2.26 1.71-2.26 1.71z"
              fill="#6896a5"/>
        <path d="M112.71 44.48s4.34-5.23 8.45-17.02c5.74-16.44.74-21.42.74-21.42s-1.69 7.82-7.56 18.69c-4.71 8.71-10.41 17-10.41 17s3.14 1.41 4.84 1.9c2.14.62 3.94.85 3.94.85z"
              fill="#a02422"/>
        <path d="M39.81 69.66c1.3 1.24 3.27-.06 4.56-3.1c1.3-3.04 1.28-4.74.28-5.46c-1.24-.9-3.32 1.07-4.23 2.82c-1 1.94-1.59 4.8-.61 5.74z"
              fill="#b3e1ee"/>
        <path d="M84.95 20.13s-7.61 5.47-15.73 12.91c-7.45 6.83-12.39 12.17-13.07 13.41c-.72 1.33-.73 3.21-.17 4.17s1.8 1.46 2.93.62c1.13-.85 9.18-9.75 16.45-16.11c6.65-5.82 11.78-9.51 11.78-9.51s2.08-3.68 1.74-4.52c-.34-.85-3.93-.97-3.93-.97z"
              fill="#b3e1ee"/>
        <path d="M84.95 20.13s5.62-4.31 11.74-7.34c5.69-2.82 11.35-5.17 12.37-3.13c.97 1.94-5.37 4.58-10.95 8.14c-5.58 3.56-10.95 7.81-10.95 7.81s-.82-1.5-1.35-2.89a23.7 23.7 0 0 1-.86-2.59z"
              fill="#ed6a65"/>
        <path d="M89.59 39.25c-5.57-5.13-13.32-3.75-17.14.81c-3.92 4.7-3.63 11.88 1 16.2c4.21 3.92 12.04 4.81 16.76-.69c4.2-4.88 3.94-12.13-.62-16.32z"
              fill="#e1e1e1"/>
        <path d="M75.33 41.87c-3.31 3.25-3.13 9.69.81 12.63c3.44 2.57 8.32 2.44 11.38-.69c3.06-3.13 3.06-8.82.19-11.76c-3.3-3.37-8.59-3.9-12.38-.18z"
              fill="#3f545f"/>
        <path d="M50 76.89s6.19-6.28 6.87-5.6c.68.68.59 4.49-2.37 8.73c-2.97 4.24-9.5 11.79-14.67 16.88c-5.1 5.01-12.29 10.74-12.97 10.64c-.53-.08-2.68-1.15-3.54-2.19c-.84-1.03 1.67-5.9 2.68-7.51c1.02-1.61 24-20.95 24-20.95z"
              fill="#a02524"/>
        <path d="M21.23 101.85c-.08 1.44 2.12 3.54 2.12 3.54L56.87 71.3s-1.57-1.77-6.19 1.1c-4.66 2.9-8.74 6.38-14.76 12.21c-8.39 8.14-14.61 15.8-14.69 17.24z"
              fill="#ca2c31"/>
        <path d="M19.06 36.95c-1.11 1.11-1.16 2.89.08 3.91c1.1.91 2.89.32 3.56-.5s.59-2.6-.3-3.48c-.89-.89-2.66-.6-3.34.07z"
              fill="#ffffff"/>
        <path d="M41.02 35.65c-.84.93-.57 2.31.21 2.82s1.95.46 2.52-.24c.51-.63.57-1.89-.21-2.67c-.68-.67-1.98-.51-2.52.09z"
              opacity=".5" fill="#ffffff"/>
        <path d="M55.55 11.89s1.22-3.48 1.94-3.52c.73-.04 1.78 3.48 1.78 3.48s3.61.04 3.85.57c.31.68-2.31 2.96-2.31 2.96s.85 3.4.45 3.81c-.45.45-3.56-1.34-3.56-1.34s-3.2 2.23-3.89 1.62c-.6-.53.65-4.13.65-4.13s-3-2.19-2.84-2.8c.23-.86 3.93-.65 3.93-.65z"
              fill="#ffffff"/>
        <path d="M97.01 95.33c1.21.67 2.73.29 3.29-1c.51-1.15-.43-2.52-1.28-2.89c-.85-.37-2.34.12-2.88 1.09c-.53.96.14 2.4.87 2.8z"
              fill="#ffffff"/>
        <path d="M114.19 65.84c-.69-1.07-2.18-1.42-3.15-.56c-.94.84-.71 2.16-.18 2.83c.53.67 1.95.92 2.81.37s.94-2 .52-2.64z"
              fill="#ffffff"/>
    </g>
</svg>